<svg width="19" height="19" viewBox="0 0 19 19" fill="none" xmlns="http://www.w3.org/2000/svg">
<path d="M11.8752 18.0105H7.12516C2.82641 18.0105 0.989746 16.1738 0.989746 11.875V7.12504C0.989746 2.82629 2.82641 0.989624 7.12516 0.989624H11.8752C16.1739 0.989624 18.0106 2.82629 18.0106 7.12504V11.875C18.0106 16.1738 16.1739 18.0105 11.8752 18.0105ZM7.12516 2.17712C3.47558 2.17712 2.17725 3.47546 2.17725 7.12504V11.875C2.17725 15.5246 3.47558 16.823 7.12516 16.823H11.8752C15.5247 16.823 16.8231 15.5246 16.8231 11.875V7.12504C16.8231 3.47546 15.5247 2.17712 11.8752 2.17712H7.12516Z" fill="#8B8B8B"/>
<path d="M7.12484 8.51042C5.9215 8.51042 4.94775 7.53667 4.94775 6.33333C4.94775 5.13 5.9215 4.15625 7.12484 4.15625C8.32817 4.15625 9.30192 5.13 9.30192 6.33333C9.30192 7.53667 8.32817 8.51042 7.12484 8.51042ZM7.12484 5.34375C6.57859 5.34375 6.13525 5.78708 6.13525 6.33333C6.13525 6.87958 6.57859 7.32292 7.12484 7.32292C7.67109 7.32292 8.11442 6.87958 8.11442 6.33333C8.11442 5.78708 7.67109 5.34375 7.12484 5.34375Z" fill="#8B8B8B"/>
<path d="M2.11377 15.5959C1.92377 15.5959 1.73377 15.5009 1.62294 15.3346C1.44086 15.0654 1.51211 14.6934 1.78919 14.5113L5.69211 11.8909C6.54711 11.3129 7.72669 11.3842 8.50252 12.0413L8.76377 12.2709C9.15961 12.6113 9.83252 12.6113 10.2204 12.2709L13.5138 9.44461C14.3529 8.72419 15.675 8.72419 16.5221 9.44461L17.8125 10.5529C18.0579 10.7667 18.0896 11.1388 17.8759 11.3921C17.6621 11.6375 17.29 11.6692 17.0367 11.4554L15.7463 10.3471C15.3504 10.0067 14.6775 10.0067 14.2817 10.3471L10.9884 13.1734C10.1492 13.8938 8.82711 13.8938 7.98002 13.1734L7.71877 12.9438C7.35461 12.635 6.75294 12.6034 6.34919 12.8804L2.44627 15.5009C2.34336 15.5642 2.22461 15.5959 2.11377 15.5959Z" fill="#8B8B8B"/>
</svg>
