<svg width="18" height="15" viewBox="0 0 18 15" fill="none" xmlns="http://www.w3.org/2000/svg">
<mask id="path-1-inside-1_542_4544" fill="white">
<path d="M14.1273 9.01C13.8795 9.21376 13.8785 9.54495 14.125 9.74974C14.3715 9.95452 14.7722 9.95535 15.0199 9.75158L14.1273 9.01ZM17.5636 7.65931C17.8113 7.45552 17.8123 7.1243 17.5658 6.91954C17.3193 6.71477 16.9187 6.71393 16.6709 6.91765L17.5636 7.65931ZM16.6709 7.65931C16.9187 7.86303 17.3193 7.86219 17.5658 7.65743C17.8123 7.45266 17.8113 7.12145 17.5636 6.91765L16.6709 7.65931ZM15.0199 4.82534C14.7722 4.62162 14.3715 4.62246 14.125 4.82723C13.8785 5.03199 13.8795 5.36321 14.1273 5.567L15.0199 4.82534ZM17.1172 7.81156C17.4667 7.81156 17.75 7.57736 17.75 7.28848C17.75 6.9996 17.4667 6.7654 17.1172 6.7654V7.81156ZM5.30583 6.7654C4.95638 6.7654 4.67308 6.9996 4.67308 7.28848C4.67308 7.57736 4.95638 7.81156 5.30583 7.81156V6.7654ZM15.0199 9.75158L17.5636 7.65931L16.6709 6.91765L14.1273 9.01L15.0199 9.75158ZM17.5636 6.91765L15.0199 4.82534L14.1273 5.567L16.6709 7.65931L17.5636 6.91765ZM17.1172 6.7654H5.30583V7.81156H17.1172V6.7654Z"/>
</mask>
<path d="M14.1273 9.01C13.8795 9.21376 13.8785 9.54495 14.125 9.74974C14.3715 9.95452 14.7722 9.95535 15.0199 9.75158L14.1273 9.01ZM17.5636 7.65931C17.8113 7.45552 17.8123 7.1243 17.5658 6.91954C17.3193 6.71477 16.9187 6.71393 16.6709 6.91765L17.5636 7.65931ZM16.6709 7.65931C16.9187 7.86303 17.3193 7.86219 17.5658 7.65743C17.8123 7.45266 17.8113 7.12145 17.5636 6.91765L16.6709 7.65931ZM15.0199 4.82534C14.7722 4.62162 14.3715 4.62246 14.125 4.82723C13.8785 5.03199 13.8795 5.36321 14.1273 5.567L15.0199 4.82534ZM17.1172 7.81156C17.4667 7.81156 17.75 7.57736 17.75 7.28848C17.75 6.9996 17.4667 6.7654 17.1172 6.7654V7.81156ZM5.30583 6.7654C4.95638 6.7654 4.67308 6.9996 4.67308 7.28848C4.67308 7.57736 4.95638 7.81156 5.30583 7.81156V6.7654ZM15.0199 9.75158L17.5636 7.65931L16.6709 6.91765L14.1273 9.01L15.0199 9.75158ZM17.5636 6.91765L15.0199 4.82534L14.1273 5.567L16.6709 7.65931L17.5636 6.91765ZM17.1172 6.7654H5.30583V7.81156H17.1172V6.7654Z" fill="#2A2A2A"/>
<path d="M15.6589 8.9824L14.7663 8.24082L13.4882 9.77918L14.3809 10.5208L15.6589 8.9824ZM16.0319 7.68681L16.9245 8.42846L18.2026 6.89016L17.31 6.1485L16.0319 7.68681ZM16.9245 6.1485L16.0319 6.89016L17.31 8.42846L18.2026 7.68681L16.9245 6.1485ZM14.7663 6.33615L15.659 5.5945L14.3808 4.05619L13.4882 4.79785L14.7663 6.33615ZM16.1172 6.7654V7.81156H18.1172V6.7654H16.1172ZM6.30583 7.81156V6.7654H4.30583V7.81156H6.30583ZM14.1273 9.01L15.3978 10.5546L15.3978 10.5546L14.1273 9.01ZM14.125 9.74974L12.8469 11.2881L12.847 11.2881L14.125 9.74974ZM15.0199 9.75158L16.2904 11.2962L16.2904 11.2962L15.0199 9.75158ZM17.5636 7.65931L18.8341 9.20392L18.8342 9.20382L17.5636 7.65931ZM16.6709 6.91765L15.4006 5.37291L15.4004 5.37307L16.6709 6.91765ZM16.6709 7.65931L15.4004 9.20391L15.4006 9.20406L16.6709 7.65931ZM17.5636 6.91765L18.8342 5.37314L18.8341 5.37306L17.5636 6.91765ZM15.0199 4.82534L16.2904 3.28075L16.2902 3.2806L15.0199 4.82534ZM14.1273 5.567L12.8566 7.11151L12.8567 7.1116L14.1273 5.567ZM12.8567 7.4654C12.31 7.91511 11.9432 8.59691 11.9408 9.37347C11.9385 10.1503 12.3015 10.8349 12.8469 11.2881L15.4031 8.21141C15.7021 8.45977 15.9423 8.87644 15.9408 9.38551C15.9393 9.89433 15.6968 10.3087 15.3978 10.5546L12.8567 7.4654ZM12.847 11.2881C13.8326 12.1069 15.3027 12.1086 16.2904 11.2962L13.7494 8.20697C14.0309 7.97541 14.3369 7.90338 14.5761 7.90387C14.8152 7.90436 15.1218 7.97766 15.4031 8.21138L12.847 11.2881ZM18.8342 9.20382C19.3808 8.7541 19.7477 8.07232 19.75 7.29581C19.7523 6.51903 19.3893 5.83432 18.8438 5.38114L16.2878 8.45794C15.9887 8.20952 15.7485 7.7928 15.75 7.28377C15.7515 6.775 15.994 6.36073 16.2929 6.1148L18.8342 9.20382ZM18.8438 5.38114C17.8583 4.56244 16.3883 4.56066 15.4006 5.37291L17.9413 8.4624C17.6597 8.69392 17.3537 8.76591 17.1146 8.76541C16.8756 8.76491 16.5691 8.69164 16.2878 8.45794L18.8438 5.38114ZM15.4006 9.20406C16.3883 10.0163 17.8583 10.0145 18.8438 9.19583L16.2878 6.11902C16.5691 5.88533 16.8756 5.81206 17.1146 5.81156C17.3537 5.81105 17.6597 5.88304 17.9413 6.11456L15.4006 9.20406ZM18.8438 9.19583C19.3893 8.74264 19.7523 8.05793 19.75 7.28116C19.7477 6.50464 19.3808 5.82286 18.8342 5.37314L16.2929 8.46217C15.994 8.21624 15.7515 7.80196 15.75 7.29319C15.7485 6.78416 15.9887 6.36744 16.2878 6.11902L18.8438 9.19583ZM16.2902 3.2806C15.3025 2.46835 13.8325 2.47013 12.847 3.28883L15.403 6.36563C15.1217 6.59932 14.8152 6.6726 14.5762 6.6731C14.3371 6.6736 14.0311 6.60161 13.7495 6.37009L16.2902 3.2806ZM12.847 3.28883C12.3015 3.74201 11.9385 4.42672 11.9408 5.2035C11.9432 5.98001 12.31 6.66179 12.8566 7.11151L15.3979 4.02249C15.6968 4.26842 15.9393 4.68269 15.9408 5.19146C15.9423 5.70049 15.7021 6.11721 15.403 6.36563L12.847 3.28883ZM17.1172 9.81156C18.1982 9.81156 19.75 9.0213 19.75 7.28848H15.75C15.75 6.74296 16.0227 6.33817 16.2904 6.11687C16.5538 5.89906 16.8527 5.81156 17.1172 5.81156V9.81156ZM19.75 7.28848C19.75 5.55566 18.1982 4.7654 17.1172 4.7654V8.7654C16.8527 8.7654 16.5538 8.6779 16.2904 8.46009C16.0227 8.2388 15.75 7.83401 15.75 7.28848H19.75ZM5.30583 4.7654C4.22493 4.7654 2.67308 5.55565 2.67308 7.28848H6.67308C6.67308 7.83403 6.40039 8.23882 6.13271 8.4601C5.86924 8.6779 5.57038 8.7654 5.30583 8.7654V4.7654ZM2.67308 7.28848C2.67308 9.02132 4.22493 9.81156 5.30583 9.81156V5.81156C5.57038 5.81156 5.86924 5.89906 6.13271 6.11687C6.40039 6.33815 6.67308 6.74294 6.67308 7.28848H2.67308ZM16.2904 11.2962L18.8341 9.20392L16.2931 6.1147L13.7494 8.20698L16.2904 11.2962ZM15.4004 5.37307L12.8567 7.46541L15.3978 10.5546L17.9415 8.46224L15.4004 5.37307ZM18.8341 5.37306L16.2904 3.28075L13.7494 6.36994L16.293 8.46225L18.8341 5.37306ZM12.8567 7.1116L15.4004 9.20391L17.9415 6.11471L15.3978 4.0224L12.8567 7.1116ZM17.1172 4.7654H5.30583V8.7654H17.1172V4.7654ZM5.30583 9.81156H17.1172V5.81156H5.30583V9.81156Z" fill="#04773B" mask="url(#path-1-inside-1_542_4544)"/>
<path d="M12.519 4.48624C12.519 2.4228 10.7626 0.749981 8.59597 0.749981H4.67289C2.50627 0.749981 0.749812 2.4228 0.749812 4.48624V10.0906C0.749812 12.1541 2.50627 13.8269 4.67289 13.8269H8.59597C10.7626 13.8269 12.519 12.1541 12.519 10.0906" stroke="#04773B" stroke-width="1.5" stroke-linecap="round" stroke-linejoin="round"/>
</svg>
