<svg width="11" height="11" viewBox="0 0 11 11" fill="none" xmlns="http://www.w3.org/2000/svg">
<path d="M10.0832 4.58329V5.95829C10.0832 7.79163 9.1665 8.70829 7.33317 8.70829H7.104C6.96192 8.70829 6.82442 8.77704 6.73734 8.89163L6.04984 9.80829C5.74734 10.2116 5.25234 10.2116 4.94984 9.80829L4.26234 8.89163C4.189 8.79079 4.01942 8.70829 3.89567 8.70829H3.6665C1.83317 8.70829 0.916504 8.24996 0.916504 5.95829V3.66663C0.916504 1.83329 1.83317 0.916626 3.6665 0.916626H6.4165" stroke="#04773B" stroke-miterlimit="10" stroke-linecap="round" stroke-linejoin="round"/>
<path d="M8.93734 3.20829C9.57016 3.20829 10.0832 2.69529 10.0832 2.06246C10.0832 1.42963 9.57016 0.916626 8.93734 0.916626C8.30451 0.916626 7.7915 1.42963 7.7915 2.06246C7.7915 2.69529 8.30451 3.20829 8.93734 3.20829Z" stroke="#04773B" stroke-linecap="round" stroke-linejoin="round"/>
<path d="M7.33163 5.04167H7.33575" stroke="#04773B" stroke-linecap="round" stroke-linejoin="round"/>
<path d="M5.49813 5.04167H5.50225" stroke="#04773B" stroke-linecap="round" stroke-linejoin="round"/>
<path d="M3.66415 5.04167H3.66827" stroke="#04773B" stroke-linecap="round" stroke-linejoin="round"/>
</svg>
