<svg width="19" height="19" viewBox="0 0 19 19" fill="none" xmlns="http://www.w3.org/2000/svg">
<path d="M9.50016 12.8646C7.426 12.8646 5.73975 11.1784 5.73975 9.10421V4.75004C5.73975 2.67587 7.426 0.989624 9.50016 0.989624C11.5743 0.989624 13.2606 2.67587 13.2606 4.75004V9.10421C13.2606 11.1784 11.5743 12.8646 9.50016 12.8646ZM9.50016 2.17712C8.08308 2.17712 6.92725 3.33296 6.92725 4.75004V9.10421C6.92725 10.5213 8.08308 11.6771 9.50016 11.6771C10.9172 11.6771 12.0731 10.5213 12.0731 9.10421V4.75004C12.0731 3.33296 10.9172 2.17712 9.50016 2.17712Z" fill="#8B8B8B"/>
<path d="M9.5001 15.6354C5.83468 15.6354 2.8501 12.6508 2.8501 8.98536V7.63953C2.8501 7.31494 3.11926 7.04578 3.44385 7.04578C3.76843 7.04578 4.0376 7.31494 4.0376 7.63953V8.98536C4.0376 11.9937 6.49176 14.4479 9.5001 14.4479C12.5084 14.4479 14.9626 11.9937 14.9626 8.98536V7.63953C14.9626 7.31494 15.2318 7.04578 15.5563 7.04578C15.8809 7.04578 16.1501 7.31494 16.1501 7.63953V8.98536C16.1501 12.6508 13.1655 15.6354 9.5001 15.6354Z" fill="#8B8B8B"/>
<path d="M10.6004 5.68421C10.5371 5.68421 10.4658 5.67629 10.3946 5.65254C9.81665 5.43879 9.18332 5.43879 8.6054 5.65254C8.29665 5.76338 7.95623 5.60504 7.8454 5.29629C7.73457 4.98754 7.8929 4.64713 8.20165 4.53629C9.04082 4.23546 9.96707 4.23546 10.8062 4.53629C11.115 4.64713 11.2733 4.98754 11.1625 5.29629C11.0675 5.53379 10.8379 5.68421 10.6004 5.68421Z" fill="#8B8B8B"/>
<path d="M10.1333 7.36254C10.0779 7.36254 10.0304 7.35463 9.97498 7.33879C9.65831 7.25171 9.33373 7.25171 9.01706 7.33879C8.7004 7.42588 8.37581 7.23588 8.28873 6.91921C8.20165 6.61046 8.39165 6.28588 8.70831 6.19879C9.2229 6.05629 9.77706 6.05629 10.2916 6.19879C10.6083 6.28588 10.7983 6.61046 10.7112 6.92713C10.64 7.18838 10.3946 7.36254 10.1333 7.36254Z" fill="#8B8B8B"/>
<path d="M9.5 18.0104C9.17542 18.0104 8.90625 17.7412 8.90625 17.4166V15.0416C8.90625 14.717 9.17542 14.4479 9.5 14.4479C9.82458 14.4479 10.0938 14.717 10.0938 15.0416V17.4166C10.0938 17.7412 9.82458 18.0104 9.5 18.0104Z" fill="#8B8B8B"/>
</svg>
