<svg width="23" height="23" viewBox="0 0 23 23" fill="none" xmlns="http://www.w3.org/2000/svg">
<path d="M13.6274 20.7287C12.4966 20.7287 10.8962 19.9333 9.63118 16.1287L8.94118 14.0587L6.87118 13.3687C3.07618 12.1037 2.28076 10.5033 2.28076 9.37248C2.28076 8.25123 3.07618 6.64123 6.87118 5.36664L15.0074 2.65456C17.0391 1.97414 18.7353 2.17539 19.7799 3.21039C20.8245 4.24539 21.0258 5.95123 20.3453 7.98289L17.6333 16.1191C16.3587 19.9333 14.7583 20.7287 13.6274 20.7287ZM7.32159 6.73706C4.65743 7.62831 3.70868 8.68248 3.70868 9.37248C3.70868 10.0625 4.65743 11.1166 7.32159 11.9983L9.73659 12.8033C9.94743 12.8704 10.1199 13.0429 10.187 13.2537L10.992 15.6687C11.8737 18.3329 12.9374 19.2816 13.6274 19.2816C14.3174 19.2816 15.3716 18.3329 16.2628 15.6687L18.9749 7.53248C19.4637 6.05664 19.3774 4.84914 18.7545 4.22623C18.1316 3.60331 16.9241 3.52664 15.4578 4.01539L7.32159 6.73706Z" fill="#04773B"/>
<path d="M9.68852 13.8C9.50644 13.8 9.32436 13.7329 9.18061 13.5891C8.90269 13.3112 8.90269 12.8512 9.18061 12.5733L12.6114 9.13288C12.8894 8.85496 13.3494 8.85496 13.6273 9.13288C13.9052 9.41079 13.9052 9.87079 13.6273 10.1487L10.1964 13.5891C10.0623 13.7329 9.87061 13.8 9.68852 13.8Z" fill="#04773B"/>
</svg>
