<svg width="11" height="11" viewBox="0 0 11 11" fill="none" xmlns="http://www.w3.org/2000/svg">
<path d="M6.29275 1.60871L7.09942 3.22204C7.20942 3.44663 7.50275 3.66204 7.75025 3.70329L9.21234 3.94621C10.1473 4.10204 10.3673 4.78038 9.69359 5.44954L8.55692 6.58621C8.36442 6.77871 8.259 7.14996 8.31859 7.41579L8.644 8.82288C8.90067 9.93663 8.30942 10.3675 7.324 9.78538L5.95359 8.97413C5.70609 8.82746 5.29817 8.82746 5.04609 8.97413L3.67567 9.78538C2.69484 10.3675 2.099 9.93204 2.35567 8.82288L2.68109 7.41579C2.74067 7.14996 2.63525 6.77871 2.44275 6.58621L1.30609 5.44954C0.63692 4.78038 0.852336 4.10204 1.78734 3.94621L3.24942 3.70329C3.49234 3.66204 3.78567 3.44663 3.89567 3.22204L4.70234 1.60871C5.14234 0.733294 5.85734 0.733294 6.29275 1.60871Z" stroke="#04773B" stroke-linecap="round" stroke-linejoin="round"/>
</svg>
