<svg width="18" height="18" viewBox="0 0 18 18" fill="none" xmlns="http://www.w3.org/2000/svg">
<path d="M9.53158 15H4.21387C1.10384 15 0 13.2084 0 11.5391V5.71092C0 3.22136 1.18269 2.25 4.21387 2.25H9.53158C12.5628 2.25 13.7455 3.22136 13.7455 5.71092V11.5391C13.7455 14.0286 12.5628 15 9.53158 15ZM4.21387 3.34368C1.92734 3.34368 1.33162 3.83296 1.33162 5.71092V11.5391C1.33162 12.4241 1.70833 13.9063 4.21387 13.9063H9.53158C11.8181 13.9063 12.4138 13.417 12.4138 11.5391V5.71092C12.4138 3.83296 11.8181 3.34368 9.53158 3.34368H4.21387Z" fill="#04773B"/>
<path d="M15.8923 13.5829C15.6108 13.5829 15.2508 13.4779 14.8384 13.1479L13.0908 11.7454C12.9599 11.6404 12.8813 11.4679 12.8813 11.2804V6.72036C12.8813 6.53286 12.9599 6.36036 13.0908 6.25536L14.8384 4.85286C15.6173 4.23036 16.1868 4.41036 16.4552 4.56786C16.7235 4.73286 17.1817 5.16036 17.1817 6.24786V11.7454C17.1817 12.8329 16.7235 13.2679 16.4552 13.4254C16.3308 13.5079 16.1344 13.5829 15.8923 13.5829ZM13.8697 10.9804L15.4079 12.2104C15.7024 12.4429 15.9119 12.4654 15.997 12.4129C16.0886 12.3604 16.1868 12.1504 16.1868 11.7454V6.25536C16.1868 5.84286 16.0821 5.64036 15.997 5.58786C15.9119 5.53536 15.7024 5.55786 15.4079 5.79036L13.8697 7.02036V10.9804Z" fill="#04773B"/>
<path d="M9.81843 8.8125C9.00679 8.8125 8.3457 8.055 8.3457 7.125C8.3457 6.195 9.00679 5.4375 9.81843 5.4375C10.6301 5.4375 11.2912 6.195 11.2912 7.125C11.2912 8.055 10.6301 8.8125 9.81843 8.8125ZM9.81843 6.5625C9.55007 6.5625 9.32752 6.8175 9.32752 7.125C9.32752 7.4325 9.55007 7.6875 9.81843 7.6875C10.0868 7.6875 10.3093 7.4325 10.3093 7.125C10.3093 6.8175 10.0868 6.5625 9.81843 6.5625Z" fill="#04773B"/>
</svg>
